/* XPM */
static char *c67687fe12dc497cd4789275cc830bebWqP5wvMzZvqL1vtz[] = {
/* columns rows colors chars-per-pixel */
"64 64 224 2 ",
"   c #5F1E3F",
".  c #651E3E",
"X  c #652444",
"o  c #6B2544",
"O  c #672B45",
"+  c #6C2946",
"@  c #662D4D",
"#  c #6C2D4C",
"$  c #6B2748",
"%  c #7D2443",
"&  c #712B46",
"*  c #7D2B46",
"=  c #722D4B",
"-  c #7B2C4A",
";  c #742646",
":  c #6C3245",
">  c #6D304D",
",  c #69374B",
"<  c #72314E",
"1  c #7A314D",
"2  c #7A3D4C",
"3  c #692E50",
"4  c #642F50",
"5  c #6E3351",
"6  c #753C58",
"7  c #75474D",
"8  c #784756",
"9  c #7B5456",
"0  c #7E4661",
"q  c #7D4E65",
"w  c #7D5168",
"e  c #9D1D39",
"r  c #9B1B37",
"t  c #821D3C",
"y  c #A31E39",
"u  c #B41C35",
"i  c #BC1D36",
"p  c #81203F",
"a  c #99233E",
"s  c #AA283B",
"d  c #BC2235",
"f  c #B3253E",
"g  c #BC263E",
"h  c #B4293D",
"j  c #BC283F",
"k  c #A9343C",
"l  c #A3343E",
"z  c #B6323E",
"x  c #C21E35",
"c  c #CA1B31",
"v  c #C42036",
"b  c #CA2236",
"n  c #C4273D",
"m  c #CA273C",
"M  c #C5283E",
"N  c #C4283E",
"B  c #C9283D",
"V  c #C1303C",
"C  c #842644",
"Z  c #852A47",
"A  c #8C2A46",
"S  c #832B49",
"D  c #8B2B48",
"F  c #8E2641",
"G  c #932642",
"H  c #922A46",
"J  c #942A46",
"K  c #992A45",
"L  c #9E2A45",
"P  c #9B2A44",
"I  c #932B48",
"U  c #9A2C48",
"Y  c #982740",
"T  c #8A3C4A",
"R  c #963749",
"E  c #973B54",
"W  c #A32741",
"Q  c #AC2741",
"!  c #A32943",
"~  c #AC2942",
"^  c #B42740",
"/  c #B62941",
"(  c #B32941",
")  c #BC2940",
"_  c #A93647",
"`  c #B43743",
"'  c #C32A40",
"]  c #C53448",
"[  c #C53D51",
"{  c #CB3C50",
"}  c #8A4656",
"|  c #84585C",
" . c #98585B",
".. c #8F494A",
"X. c #A44348",
"o. c #AB4957",
"O. c #BB4557",
"+. c #A65556",
"@. c #9B4A62",
"#. c #87546C",
"$. c #8B546B",
"%. c #B25368",
"&. c #9B6565",
"*. c #946679",
"=. c #987879",
"-. c #8B6471",
";. c #A26767",
":. c #B86465",
">. c #B0716E",
",. c #A87877",
"<. c #B16E7B",
"1. c #C74A58",
"2. c #CC5565",
"3. c #D35969",
"4. c #C56465",
"5. c #C66675",
"6. c #C7727D",
"7. c #C87B7A",
"8. c #D36979",
"9. c #BF817F",
"0. c #976C81",
"q. c #9E7B89",
"w. c #9E7F92",
"e. c #AB7784",
"r. c #B97F90",
"t. c #C87B85",
"y. c #D37686",
"u. c #A7888B",
"i. c #B58B8A",
"p. c #A78796",
"a. c #AB949C",
"s. c #BA9596",
"d. c #B28495",
"f. c #9D92A3",
"g. c #AD95A5",
"h. c #B39FB1",
"j. c #B098A2",
"k. c #BDAEAC",
"l. c #B8A9B6",
"z. c #BAB0BE",
"x. c #ADAEBA",
"c. c #C4898A",
"v. c #C68B96",
"b. c #C69B9C",
"n. c #CE8E93",
"m. c #D097A5",
"M. c #C5ABA8",
"N. c #D3A7AA",
"B. c #C4B2AF",
"V. c #C4B3B2",
"C. c #CDBDBA",
"Z. c #C9B8B6",
"A. c #D2BABB",
"S. c #CDA5B2",
"D. c #CBC1BE",
"F. c #D3C1BB",
"G. c #B3B9CB",
"H. c #C9BAC6",
"J. c #DDBDC4",
"K. c #AEC3CE",
"L. c #BCCDDA",
"P. c #B6C7D6",
"I. c #BDD4DA",
"U. c #B6C5D0",
"Y. c #BFD8E4",
"T. c #BDE0F0",
"R. c #CAC4C3",
"E. c #C3C4C5",
"W. c #D5C6C8",
"Q. c #C4CEDC",
"!. c #C4D4DA",
"~. c #CAD9DB",
"^. c #C8D3DB",
"/. c #D5D7DA",
"(. c #D6D1CB",
"). c #E4D9D9",
"_. c #E0CCD6",
"`. c #C4D4E3",
"'. c #CBD4E1",
"]. c #CCDBE4",
"[. c #CFDFE9",
"{. c #C4DBE5",
"}. c #D5DDE5",
"|. c #D2DEEA",
" X c #D7D8E2",
".X c #E4DDE4",
"XX c #CDE1ED",
"oX c #CEE2E3",
"OX c #D4E3EA",
"+X c #DAE2EB",
"@X c #D9ECED",
"#X c #CDE2F4",
"$X c #C1E7FA",
"%X c #CFE6F9",
"&X c #C5E9FA",
"*X c #CCECFC",
"=X c #C5E7F4",
"-X c #D0E7F1",
";X c #DCEDF4",
":X c #D3EDFB",
">X c #D5EBF7",
",X c #CEF2FF",
"<X c #D5F4FE",
"1X c #D9F1FB",
"2X c #DCFCFF",
"3X c #D8F4FA",
"4X c #E6E6E5",
"5X c #ECEBEB",
"6X c #E3E6ED",
"7X c #F2EDEE",
"8X c #F4F0EF",
"9X c #E3EDF4",
"0X c #EBEEF2",
"qX c #E2ECF9",
"wX c #E6F1F5",
"eX c #E8F3F5",
"rX c #E5F5FD",
"tX c #E9F5FB",
"yX c #EBFCFE",
"uX c #E3FBFB",
"iX c #F4F4F4",
"pX c #F4FDFE",
"aX c #FDFDFD",
"sX c #F7F8F7",
/* pixels */
"# # # # # D N N M n n N P # = # # # # = f N N n n N g - # # # # * ' N n n N H # # # = / M n M n N L # = # # # # ! m n n n m L # ",
"# # # # # = / N n n n N ~ # # # # # # = ( N n M M N g - # # # # - j N N N m J # # # = ~ N n N g N ~ # # # # = # A N n n n N / = ",
"= # # # # # L m n N N N / = # = # # # # ! N n n n N ) = # # # # = j N n N M P @ # # @ W m n m m m / # # # # # @ = n B N m m N D ",
"S = - = = # - g n n N N N S @ # # @ # @ ! m N N n N / = = - Z S S A A S - * I ~ W ! P J L L L L L P A H H H H H D H ! ! ! ~ ( P ",
"A ) ) h f ^ W Z S D D D H D I H H H A A J L P J A D Z ~ ) j n N W @ # # # @ U m N N m I @ $ # # # # ( m N N n n ) = # # # # # = ",
"S N N M M n m Z X $ # > @ S N m m N N B S @ # # # # = g B M N n W # # # # # U N N N N P # = # = = # ! M n n N n g * > # # # # # ",
"= h n n n N v L 0 8 < o # = ) N n n n N H # # # = # = j M N n N ~ # # # # @ P m N M m W # # # # # @ J m n N N n M D # # # # # # ",
"# ( m N M v 1.J.6X XH.*.+ = ~ N n n n N L # = # # # - g N n n m ~ # # # = - I ~ ~ ~ ~ J - S - - - = D j ) ) g n m L @ # # # # # ",
"S P ~ ( f O..XtX'.P.P.].*.X ! N M N M m W # $ # # # = ) N n j j ! - H ~ / N L # = # # - ) v i i g N ~ = = - - S D S H J J H A D ",
"m J # = o H.eXQ.G.K.P.`.H.~ H D A A A H D J P L L ! P S D Z * = = / m N n B ! $ o o o o j 2.6.5.[ v j - # # # # # # ( m N N N n ",
"m ~ 5 o #.0X'.L.L.Y.`.[.+X3.a > # # # # - M B N n m / # # # # # = j N n n B Y 5 q.p.#.#.v.R.~.!.Z.[ x S # = # # # # L N n N n n ",
"m ( < . p.eX^.Q.{.XXXX|.>Xy.e > # # = # * j N n n n ~ # = = = # * N B n N M G a././.E.E.!.-X:X*XI.n.N C @ # # $ # @ H m N M N n ",
"n ( >   g.yX}.}.|.OXOX].XXy.y 5 # # # # - g m N n m L @ # # $ # * ) ^ ! I * E R.;XrX>X>X:X*X&X&XT.U.b.@.F A D Z S - D ) ) j g g ",
"* S U r m.pX6X+X|.|.].`.'.%.a - - - * * S ! Q ~ ( ( H D H J J P Z = = # # O o.R.1X>X*X*X&X$X$X$X&X=XI.E.2.x ' n g g ( - = = - - ",
"# # ( c 8.pX0X6X+X'.Q.`. X6 * ) g g j n / = # = = # J m M N N m A # # # # $ _ Z.XX&X$X$X$X$X&X*X:X1XrXoXc.x N n n N g - # # # # ",
"# # ! N ) ).pX6X+X'.'.tXa.X - N N n n M h = # # # # P M N n g N S # # # # # f 3.R.!.=X=X&X*X:X1XrXrXrX@Xt.x N n n N n S # = # # ",
"# # L m x 2.7XpX9XeXpXH.# # = ) B M M m h # # # # # P m M N N j = @ # = - A H G @.u.p.j.E.-XrXrXrXOXV.e._ j ) g n n N D # # # # ",
"J I J L L y %.S.W.W.d.1 * - - ~ / / / / L = - - - = H / ( ~ ~ ! S H ! / N N - @ + $ o o $.Z.oX].~.b.] u * = = - - * - S Y P J I ",
"M m L # # # o o - f u g ) n ! = = = = # Z j j j j g S # = = # = / m m M N g S # # # # # * [ 6.t.5.' v M S # # # # # @ S m N M N ",
"g N W # # # # # - N B M n m ~ # # # # # D N M N n _ 2 : > # # - ) n N n N n S # # # # # = f x x v n n N H # = # = # # Z n n n n ",
"m m ~ # # # # @ * n B N N m ! # # # # @ J m N ' _ ;.u.=.7 : # Z m B N N n j S # = = = # # ~ ' N N n N m L @ # # # # @ - n N B N ",
"! W P Z S Z S * Z ~ ~ ~ s f J = - - = = H ( / R M.aXaXaXW.| 1 A Y J H D S S ~ ( ( ~ ~ Q W D S S Z D D A D I J J J U P A I P P L ",
"# # S ' M M n N J # # # # # P n g g N ~ # # O q.aXaXaXaXaXC.X.Z @ # # # # * n N n m N m N * # # # # # @ = ) m B m N m ! @ # # # ",
"= # S N M n n N J # # # # # ~ n n n B ! # # : B.aXaXaXsXiX4X .- # # # = # Z n n n n n M n Z # = # = = # = ^ N n n g N L # = # = ",
"# @ S N N N N n Z # # # # # f B N N B I # # O k.aXsXsX5X5X4X&.$ # @ # # # Z n N n N N N N S @ # # # # @ = ) m N N N m W @ # # # ",
"S Z A W W W ~ ~ D - - - * * W / ( ~ ~ D * Z * u.aXiX5X5X5X5Xu.C I J L W ~ J - S D A H H I A J J J J H A D P ! ! ! ! W H S D D D ",
"N m L # # # = # ~ N g g N L # = = # = ~ N n g ;.5X5X5X5X5XaXM.s m B m N m P @ # # # # # @ ! m n m m N m ~ # # # # # @ * n N N N ",
"N M P # = # # = / N n N B A # = # # = j M N n +.4X5X5X5XiXaXB.s N N n g N J # = = = # = # L N n N N N N ~ = # # # = # Z n n n n ",
"N m J @ # # # = ) n M N N S @ # # @ * n B N n +./.5X8XsXaXaXW._ m B N N m P @ # # # # # @ ! m M N M M m ~ # # # # # @ D m N n N ",
"! L H H H H H D H H J J J I J P J P A H L L ! T D.aXsXaXaXaX8X .W W ! ! P I H H H D D A D J ! ! ! ! ! ! Y S Z D A D D A L L L L ",
"$ @ P m M N m ! @ # # # = / m M N m ! @ # # # : B.aXaXaXaXaX).8 # # # # @ D m N N N N N N Z 3 # # # # @ D N ' N N n n D # # # # ",
"= # ! n n N N P # = = # - ) N N g N L # = = = : ,.C.B.s.>.&.8 # # # # = # A n N n n n x d Z $ o # # = # H N N n n N g - # = # # ",
"# = ^ N M M N S @ # # # S n N N B m H @ # # # # G k k k z g = @ # # # # @ S N N N N n 4.b.Z.V.u.2 o # @ J m N B m m ^ # # # # $ ",
"P S D I A A D I ! ! W J T D D A H H H P J J J D A ~ ~ ~ Q ~ S S Z S D D J I H J I a c.@XrXrXyXyX(.} % - A L P L P P J I H J J P ",
"n S @ # # # # Q B k +.>. ., # # # @ P m N N N N S # # # # # ! N n n M M m ^ # > X =.wXqX9XeXwXwXyXA.V Q # # # # # 4 A m N n N m ",
"~ = # = # # = ^ k i.7XaX5X=.: = = # P M n n n n S # = # # # ! m n n n n B / = # & C.rX9XeXeXeX9X9XuX4.e # = # # = # ! N N n n n ",
"H @ # # # # * l i.aXaXaXaX).9 # = # L N n N N M D # = # # # L m N N N n n ) = $ < /.rXwXeXeX9X9XwXyXt.t # = # # = = ( m n n N h ",
"! ! ! W W ! T | 5XaXsXaXsXsX,.s ~ ~ D - Z Z Z S H ~ ~ ~ Q ~ A Z Z S S * * - D f _ /.tXeXeX9X9XwXwXrXe.e ~ ~ ~ ~ ~ Z S Z Z S S P ",
"N m m B m ' 7 a.aX5X5X5X5XeXi.d m B D @ # # # @ A B n N N m J @ # # # # # @ P m n W.yXwX9X9XwXeX9X;X:.x B N n m I # # # # @ S g ",
"n N N N M U 7 Z.iX5X5X5X5X5X,.h N M P # = # = # D M N N n m ~ # # # # # # # L m x 7.yXwX9XwXeX9XrXZ.z N n n N L # # # = # = / M ",
"n N N B ( # 7 W.0X5X5X5X5X5X;.` m B Q $ # # # # = ( j / ( ~ ! - = = = = = # L N n n n.;XyXyXrXrXR.o.v M n N ) = # # # # # ! m N ",
"P L P L J A T R.sXiXsXiXaXA...R J H D D L L ! ! ~ S = = = # # I ) ) / / / W * S S Z F :.N.F.M.9.T C H H A D H ! ! L L P - A L P ",
"# # # # ~ m l s.aXaXaXaX7X-.: # # # 3 ! m N B B m H @ # # # # D m N M N m j = # # @ Z x d g d v G @ # # # @ J B N N m B Z # # # ",
"= = # = ~ N j X.W.aXaX7X=.: # # # # # P N n n N N W # = = # # - g n n n n f = # = # J B ' n N n D # # # = # L N g N n n S # # # ",
"# # # # ~ M N j ..s.b. ., # # # # $ @ D m m m n m j = @ # # @ # j B B B m ) = # # @ L m N N m m D # # # # # A m M N n N A # # # ",
"# # # # ! N g n ` l h Y # = = - S D D A P P P Y P J D J H H P H D H Y ! ~ ! S S D S H ~ W W ~ ~ A - - - - = Z ( ) ) j n W # # # ",
"~ W W ! A S Z D D D S - ~ ^ j g N M m ~ @ # # # # @ S m N N m N * @ # # # # W N n N D @ # # # # Z g g j j g ( - = = - - = J ~ ~ ",
"N N N m A @ # # # # # = j B M M n M M ~ # # = = = # - ) N n n N A # = # # # ~ n n B A # # # # # S n N n N N M D # # # # # P m n ",
"n n N N P # = # # # # = ^ N n n n n N ( # # # # # # - n B B n m J @ # # # # W m N N J # # # # # - N N M M M B J # # # # # Z n n ",
"N N N m ( # # # # # # # ~ m B n m m m ( # # # = 1 1 Z a e e W ~ A - - = = # L m n n Y # = = # # = ~ g u d i n P $ = = # # = f N ",
"D H J P J * Z S S Z S S J ! ! L P P I Z ! ~ / f u i ~ 0 q.h.-.$ S j ) j / ( H S S S S ~ ^ ~ ~ ~ ~ C } d.l.e.* = W / ~ ~ ~ ~ D Z ",
"# # # # @ A n n N n N N H @ # # # # # = ) m N { y.m._.9X9X1Xf.O S n M N N m H @ # # = j n N N N b o.!.<X<XuXq.X ~ m n M M m P @ ",
"= # = # # = ) N n n n N ~ # # = # # # = ( M x n.2X>X;X+XL.P.x.5 - j M n n M J # = = = ~ n n n n v N.<X#X>X<X^.< A M N N n N / = ",
"# # # # # # ! N n n N N / = # # # # # # W M x 5.;X}.}.L.K.L.^.w ; ) m N N B P @ # # # W m N N N b A.,X%X1X:X#Xq ; N m N N N N Z ",
"* = = = = # - n n N N B N S @ # # # # @ ! m v ] .X;X!.K.P.].OX0.% J P A A A A A A D D I W ! W ! y r.:X:X1X:X:Xe.p U W W ~ ~ / P ",
"H j f ( ~ ~ ! D A A H J Y Z Z Z S Z Z S J ~ ! Y W.;XL.U.~.}.{.v.W # # # # @ I m N n N A @ # # # X *.:X:X1X%X,Xn.u = # # # # = = ",
"S n n N N N n S @ # # # @ Z n n M n n N Z @ > X g.>XL.'.OX[.Y.H._ # # # = # U N N n N J # = # < o w.<X1X>X%X*XH.g - # # # # # # ",
"= h N n N N N P # = # = # = j n n N N m H # = o 0.1X[.OX^.l.s.5._ # # # = # P m N N m ! # # # # & z.<X1X:X%X*X/.' Z # = # # # # ",
"# ( B N N n m W # # # # # = ( M N n n N L # = # 6 z.h.<.O.) n v ~ # # # # = A ( ( ( ^ P = = = # & G.2X>X:X%X<XN.b P @ # # # # # ",
"- L / / j j j ~ = # # # # # ! m N m N m ! @ # # # @ & d b n N N ! - D P ~ j L # = # # = ) g ) / u 6.;X1X:X#Xl.E Y A Z D D D Z S ",
"N H # = = = - - ! ( ~ ~ ~ ! I I H J J J A A H J U L J D D D S * - ( N N N B ! # # # # = ) n N N N N 1.,.*.0 $ @ # # ( m N N n n ",
"m W # # # # # # f m N M N m P @ # # # @ - n m n N m / # # # # # = ) N N n m L # = # # = / N n n n M d % X $ # # # # ! m n N n n ",
"N ~ # # # = = # W N n n n N ! # = # = # * j M N n M ~ # # # = # - j n B N N J # # # # # ~ N n N N N B D @ # # # # # J N N n n M ",
"N / = # # # = # L N n n n B ! # # # # # - j M n n m ! # # # = # - g n ~ J Z H ~ ~ ~ W ! Z S Z D A J P D Z S - - = # Z M n M n n "
};
